<svg xmlns="http://www.w3.org/2000/svg" xmlns:xlink="http://www.w3.org/1999/xlink" width="500" zoomAndPan="magnify" viewBox="0 0 375 374.999991" height="500" preserveAspectRatio="xMidYMid meet" version="1.2"><defs><clipPath id="94aa71b0d6"><path d="M 15.535156 28.753906 L 359.785156 28.753906 L 359.785156 309 L 15.535156 309 Z M 15.535156 28.753906 "/></clipPath></defs><g id="07a138dfb4"><path style=" stroke:none;fill-rule:nonzero;fill:#365b6d;fill-opacity:1;" d="M 109.078125 111.039062 C 111.597656 111.039062 113.996094 109.902344 115.382812 108.011719 C 115.632812 107.632812 115.632812 107.253906 115.507812 106.878906 C 115.253906 106.5 115.003906 106.246094 114.625 106.246094 C 114.371094 106.246094 114.121094 106.371094 113.996094 106.625 C 112.859375 108.011719 110.96875 109.019531 108.953125 109.019531 C 107.1875 109.019531 105.800781 108.390625 104.917969 107.128906 C 104.664062 106.878906 104.414062 106.75 104.035156 106.75 C 103.65625 106.75 103.277344 107.003906 103.027344 107.253906 C 102.902344 107.507812 102.902344 107.886719 103.152344 108.136719 C 104.414062 110.027344 106.683594 111.039062 109.078125 111.039062 Z M 109.078125 111.039062 "/><g clip-rule="nonzero" clip-path="url(#94aa71b0d6)"><path style=" stroke:none;fill-rule:nonzero;fill:#365b6d;fill-opacity:1;" d="M 358.949219 202.1875 C 358.824219 201.933594 358.445312 201.933594 358.195312 201.808594 C 358.070312 201.808594 357.941406 201.683594 357.816406 201.683594 C 355.421875 200.800781 353.402344 198.910156 352.394531 196.640625 C 351.765625 195.125 351.511719 193.363281 351.640625 191.722656 C 351.640625 190.335938 352.015625 189.074219 351.511719 187.816406 C 350.503906 185.546875 350.882812 182.644531 349.371094 180.375 C 344.703125 173.695312 334.367188 174.199219 332.980469 173.945312 C 328.695312 173.0625 324.15625 172.8125 319.867188 172.183594 C 322.894531 170.417969 325.921875 168.652344 328.820312 166.761719 C 329.449219 166.257812 329.199219 165.375 328.441406 165.121094 C 327.433594 164.871094 326.425781 164.617188 325.414062 164.367188 C 325.414062 164.367188 325.414062 164.367188 325.289062 164.367188 C 325.164062 164.238281 325.164062 164.113281 324.910156 163.988281 C 317.726562 160.332031 320.121094 149.109375 324.027344 144.066406 C 324.40625 143.5625 324.15625 143.058594 323.777344 142.808594 C 323.777344 142.808594 323.652344 142.679688 323.652344 142.679688 C 321.761719 141.546875 317.597656 140.664062 317.222656 140.539062 C 310.414062 139.023438 303.859375 137.511719 297.554688 136 C 302.976562 119.609375 302.472656 101.328125 300.957031 88.34375 C 299.066406 71.828125 292.257812 58.71875 280.785156 49.515625 C 270.324219 41.195312 255.195312 35.144531 234.644531 31.234375 C 227.082031 29.722656 218.886719 28.964844 210.4375 28.964844 C 197.453125 28.964844 183.585938 30.855469 170.347656 34.261719 C 161.523438 36.53125 152.195312 39.554688 140.089844 44.09375 C 133.789062 46.488281 125.59375 49.894531 118.785156 55.945312 L 118.40625 56.324219 C 116.265625 57.835938 114.371094 59.726562 112.480469 61.617188 C 111.851562 62.246094 111.222656 62.878906 110.589844 63.507812 C 109.835938 64.265625 108.953125 65.019531 108.070312 65.902344 C 105.925781 67.921875 103.78125 69.9375 101.890625 72.082031 C 101.765625 72.082031 101.640625 72.207031 101.640625 72.332031 C 99.621094 70.945312 97.226562 69.9375 94.957031 69.054688 C 93.949219 68.675781 93.066406 68.300781 92.058594 67.796875 C 91.300781 67.417969 90.546875 67.289062 89.914062 67.289062 C 88.402344 67.289062 87.394531 68.425781 87.015625 70.820312 C 85.753906 78.132812 85.25 87.964844 89.789062 92.632812 L 89.789062 93.007812 C 89.914062 95.40625 89.789062 97.800781 89.535156 100.195312 C 89.285156 102.84375 89.03125 105.742188 89.410156 108.515625 C 89.914062 112.171875 90.796875 115.828125 92.058594 119.359375 C 92.6875 121.125 93.320312 122.761719 94.074219 124.527344 C 94.203125 124.90625 96.09375 129.191406 96.34375 129.191406 C 95.964844 129.316406 95.714844 129.316406 95.335938 129.445312 C 86.636719 131.714844 78.066406 134.109375 69.367188 136.378906 C 65.332031 137.511719 61.046875 138.648438 56.632812 139.90625 C 54.488281 140.539062 52.347656 141.042969 50.203125 141.796875 C 49.445312 142.050781 48.691406 142.554688 47.933594 142.933594 C 47.050781 143.4375 46.167969 143.816406 45.285156 144.320312 C 38.984375 148.480469 37.21875 156.421875 38.101562 163.988281 L 24.988281 169.914062 C 24.105469 170.289062 24.484375 171.550781 25.367188 171.550781 C 25.492188 171.675781 25.492188 171.675781 25.617188 171.804688 C 25.617188 172.054688 25.746094 172.308594 26.125 172.308594 C 26.125 172.308594 26.125 172.308594 26.25 172.308594 C 30.03125 176.214844 33.058594 180.878906 33.308594 186.554688 C 33.5625 192.605469 30.03125 196.765625 25.492188 200.167969 C 25.367188 200.167969 25.242188 200.042969 25.113281 200.042969 C 24.105469 199.664062 23.601562 200.925781 24.230469 201.554688 C 24.359375 202.1875 24.988281 202.691406 25.617188 202.1875 C 25.746094 202.0625 27.003906 202.816406 27.257812 202.816406 C 27.761719 203.070312 28.390625 203.320312 28.898438 203.574219 C 30.03125 204.078125 31.167969 204.582031 32.300781 205.085938 C 33.941406 205.84375 35.578125 206.472656 37.21875 207.230469 C 34.191406 209.246094 31.292969 211.136719 28.265625 213.15625 C 27.511719 213.660156 26.753906 214.164062 25.996094 214.667969 C 25.367188 215.171875 24.609375 215.550781 24.105469 216.054688 C 15.535156 224.125 15.535156 233.703125 15.785156 236.730469 C 16.164062 243.539062 20.324219 249.589844 26.25 252.742188 C 26.375 252.992188 26.5 253.121094 26.753906 253.246094 C 81.59375 268.121094 135.300781 282.871094 190.519531 295.984375 C 206.40625 299.765625 222.289062 303.546875 238.175781 307.328125 C 238.175781 307.328125 238.300781 307.328125 238.300781 307.328125 C 238.300781 307.457031 238.300781 307.582031 238.425781 307.707031 C 238.804688 308.210938 238.929688 308.339844 239.6875 308.339844 C 239.8125 308.339844 239.8125 308.339844 239.941406 308.339844 C 240.191406 308.589844 240.695312 308.84375 241.074219 308.464844 C 242.585938 307.203125 244.101562 306.070312 245.613281 304.808594 C 258.851562 294.09375 271.835938 283.25 284.695312 272.15625 C 297.554688 261.0625 310.160156 249.714844 322.640625 238.242188 C 328.820312 232.445312 334.996094 226.644531 341.175781 220.71875 C 344.199219 217.820312 347.351562 214.792969 350.378906 211.894531 C 351.890625 210.382812 353.402344 208.867188 354.917969 207.480469 C 356.175781 206.347656 356.933594 204.960938 358.320312 204.078125 C 358.949219 203.574219 359.457031 202.691406 358.949219 202.1875 Z M 326.550781 183.527344 C 327.054688 183.148438 327.558594 182.773438 328.0625 182.265625 C 330.082031 180.628906 332.222656 178.988281 334.242188 177.226562 C 339.535156 176.34375 345.585938 177.730469 348.234375 182.898438 C 348.992188 184.535156 349.242188 186.050781 349.242188 187.4375 C 349.242188 187.816406 349.117188 188.320312 348.992188 188.695312 C 346.972656 191.34375 343.824219 193.109375 341.046875 195.125 L 332.476562 201.304688 C 327.308594 204.960938 322.136719 208.742188 316.96875 212.398438 C 315.332031 213.40625 313.691406 214.542969 311.925781 215.550781 C 308.019531 217.945312 304.234375 220.339844 300.328125 222.738281 C 296.417969 225.132812 292.511719 227.402344 288.601562 229.796875 C 284.695312 232.066406 280.785156 234.460938 276.753906 236.730469 C 272.84375 239 268.808594 241.269531 264.902344 243.539062 C 260.992188 245.808594 256.960938 248.078125 253.050781 250.347656 C 249.144531 252.613281 245.109375 254.882812 241.199219 257.152344 C 237.292969 259.421875 233.257812 261.691406 229.351562 263.960938 C 226.199219 265.851562 223.046875 267.742188 219.894531 269.507812 C 219.265625 269.886719 218.632812 270.265625 217.878906 270.644531 C 217.75 270.644531 217.625 270.769531 217.625 270.769531 L 211.824219 274.300781 C 210.816406 274.929688 209.933594 275.433594 208.925781 276.0625 C 208.167969 276.441406 207.539062 277.074219 206.65625 277.324219 C 209.050781 274.425781 210.691406 271.023438 211.574219 267.367188 C 211.574219 267.367188 211.574219 267.367188 211.699219 267.367188 C 212.332031 261.1875 211.699219 254.757812 206.277344 250.976562 C 228.972656 239.757812 251.414062 228.03125 273.476562 215.800781 C 291.503906 206.09375 310.160156 196.136719 326.550781 183.527344 Z M 310.035156 218.828125 C 286.460938 237.488281 262.886719 256.019531 239.308594 274.550781 C 239.308594 274.300781 239.058594 274.046875 238.804688 273.921875 L 222.414062 270.011719 C 224.683594 268.753906 226.828125 267.367188 228.972656 266.105469 C 232.878906 263.835938 236.914062 261.441406 240.824219 259.171875 C 244.730469 256.902344 248.765625 254.632812 252.671875 252.363281 C 256.707031 250.09375 260.617188 247.824219 264.523438 245.554688 C 268.433594 243.285156 272.464844 241.015625 276.375 238.746094 C 280.28125 236.476562 284.316406 234.207031 288.226562 231.8125 C 292.132812 229.417969 296.042969 227.148438 299.949219 224.753906 C 303.355469 222.863281 306.632812 220.84375 310.035156 218.828125 Z M 324.15625 165.753906 C 324.28125 165.878906 324.40625 165.878906 324.535156 165.878906 C 324.660156 166.003906 324.785156 166.128906 325.039062 166.257812 L 325.921875 166.507812 C 320.246094 170.164062 314.320312 173.441406 308.394531 176.46875 C 307.765625 176.847656 307.007812 177.226562 306.378906 177.476562 C 292.511719 184.535156 278.265625 190.589844 264.019531 196.890625 C 241.832031 206.726562 220.148438 217.820312 198.589844 229.039062 C 192.03125 219.960938 190.015625 204.835938 202.75 199.792969 C 202.875 199.792969 202.875 199.664062 203 199.539062 C 203.882812 199.414062 204.640625 199.160156 205.394531 198.65625 C 205.523438 198.53125 205.648438 198.40625 205.648438 198.277344 C 228.089844 188.320312 250.53125 178.105469 272.84375 167.769531 C 273.601562 167.390625 274.355469 167.011719 275.113281 166.761719 C 290.496094 159.699219 305.875 152.515625 321.128906 145.203125 C 317.726562 152.011719 316.84375 161.96875 324.15625 165.753906 Z M 130.761719 205.210938 C 128.492188 194.246094 131.140625 183.023438 138.199219 174.449219 C 147.027344 178.105469 155.722656 181.761719 164.550781 185.292969 C 170.726562 187.816406 176.777344 190.335938 182.828125 192.730469 C 185.855469 193.992188 189.007812 195.125 192.160156 196.136719 C 193.671875 196.640625 195.3125 197.144531 196.824219 197.648438 C 197.203125 197.773438 200.101562 199.035156 200.351562 198.910156 C 188.882812 204.582031 189.890625 218.953125 196.066406 228.660156 C 195.5625 227.90625 177.660156 222.484375 173.878906 221.222656 C 168.710938 219.332031 163.539062 217.441406 158.371094 215.550781 C 149.167969 212.273438 139.964844 208.867188 130.761719 205.589844 C 130.761719 205.464844 130.886719 205.339844 130.761719 205.210938 Z M 128.871094 204.960938 C 124.710938 203.449219 120.675781 201.933594 116.515625 200.546875 C 116.640625 200.421875 116.769531 200.296875 116.769531 200.042969 C 117.019531 190.589844 118.785156 177.730469 125.71875 170.289062 C 126.222656 170.164062 126.601562 169.914062 127.105469 169.785156 C 130.257812 171.046875 133.410156 172.433594 136.5625 173.695312 C 129.5 182.644531 126.726562 193.867188 128.871094 204.960938 Z M 112.859375 181.511719 C 113.617188 178.863281 114.625 175.839844 116.265625 173.0625 C 116.515625 173.0625 116.640625 173.0625 116.894531 172.9375 C 118.785156 172.6875 120.550781 172.054688 122.316406 171.425781 C 116.769531 179.242188 115.128906 190.839844 115.003906 199.792969 C 113.996094 199.414062 112.859375 199.035156 111.851562 198.65625 C 111.851562 198.65625 111.851562 198.53125 111.851562 198.40625 C 110.96875 192.859375 111.347656 187.183594 112.859375 181.511719 Z M 109.835938 198.152344 C 107.816406 197.394531 105.800781 196.640625 103.65625 195.882812 C 102.648438 195.503906 101.515625 195.378906 100.632812 194.75 C 100.378906 194.496094 100.128906 194.246094 99.875 193.867188 C 98.738281 191.722656 99.246094 188.824219 98.992188 186.429688 C 98.738281 183.148438 98.738281 179.746094 99.621094 176.46875 C 100.128906 174.324219 101.007812 172.433594 102.144531 170.542969 C 102.523438 170.796875 103.027344 171.171875 103.40625 171.425781 C 105.675781 172.6875 108.574219 173.441406 111.851562 173.441406 C 112.480469 173.441406 113.238281 173.441406 113.867188 173.316406 C 112.859375 175.332031 112.105469 177.476562 111.347656 179.492188 C 109.582031 185.671875 109.203125 191.847656 109.835938 198.152344 Z M 97.984375 193.867188 C 94.707031 192.730469 91.429688 191.472656 88.148438 190.335938 C 88.402344 190.082031 88.65625 189.832031 88.527344 189.328125 C 85.882812 178.359375 89.535156 167.515625 97.859375 160.332031 C 97.859375 161.214844 97.859375 162.097656 97.984375 162.980469 C 98.363281 165.5 99.246094 167.644531 100.882812 169.28125 C 99.875 170.921875 98.992188 172.6875 98.363281 174.578125 C 96.34375 180.878906 97.480469 187.5625 97.984375 193.867188 Z M 129.375 168.902344 C 133.15625 167.769531 137.066406 166.886719 141.226562 166.507812 C 146.519531 165.878906 152.195312 165.625 158.121094 165.625 C 168.207031 165.625 179.171875 166.507812 191.78125 168.273438 C 195.816406 168.777344 199.976562 169.535156 204.136719 170.164062 C 215.859375 172.054688 227.964844 173.945312 239.8125 173.945312 C 248.007812 173.945312 255.445312 172.9375 262.003906 171.046875 C 242.839844 179.871094 223.675781 188.570312 204.386719 197.144531 C 204.136719 197.269531 204.007812 197.394531 203.882812 197.523438 C 203.378906 197.773438 202.875 197.898438 202.246094 198.027344 C 201.613281 198.027344 199.976562 197.019531 199.34375 196.765625 C 198.085938 196.261719 196.824219 195.882812 195.4375 195.378906 C 192.914062 194.496094 190.269531 193.488281 187.746094 192.605469 C 182.578125 190.714844 177.28125 188.695312 172.113281 186.679688 C 160.765625 182.265625 149.421875 177.601562 138.199219 172.9375 C 138.074219 172.8125 137.820312 172.6875 137.570312 172.6875 C 134.921875 171.300781 132.148438 170.164062 129.375 168.902344 Z M 316.210938 142.175781 C 318.355469 142.429688 319.996094 142.933594 321.128906 143.4375 C 306.503906 150.371094 291.882812 157.179688 277.257812 163.988281 C 286.964844 157.429688 293.140625 148.226562 296.796875 138.015625 C 308.523438 140.539062 316.085938 142.175781 316.210938 142.175781 Z M 91.554688 107.003906 C 91.429688 104.609375 91.554688 102.210938 91.804688 99.941406 C 92.058594 97.675781 92.183594 95.277344 92.058594 93.007812 C 92.058594 92.882812 92.058594 92.757812 91.933594 92.757812 C 92.183594 92.378906 92.058594 92 91.804688 91.621094 C 88.023438 87.839844 88.65625 80.652344 89.03125 75.359375 L 89.03125 74.730469 C 89.03125 74.476562 89.03125 73.972656 89.03125 73.59375 C 89.03125 72.585938 89.03125 71.074219 89.410156 70.570312 C 89.789062 69.9375 90.292969 69.6875 90.921875 69.6875 C 91.679688 69.6875 92.5625 70.0625 93.320312 70.441406 L 94.578125 70.945312 C 97.730469 72.207031 101.136719 73.59375 103.40625 76.367188 C 103.65625 76.621094 103.910156 76.746094 104.035156 76.746094 C 104.414062 76.746094 104.792969 76.492188 104.917969 76.117188 C 105.042969 75.738281 105.042969 75.359375 104.792969 74.980469 C 104.414062 74.476562 103.910156 73.972656 103.40625 73.59375 C 105.167969 71.449219 107.1875 69.558594 109.203125 67.796875 C 109.835938 67.164062 110.464844 66.535156 111.222656 65.902344 C 112.105469 65.148438 112.859375 64.265625 113.617188 63.382812 C 114.5 62.375 115.507812 61.492188 116.390625 60.609375 C 117.148438 59.851562 118.15625 59.222656 119.039062 58.59375 C 120.046875 57.960938 121.054688 57.203125 121.9375 56.324219 C 123.828125 54.558594 125.972656 53.171875 127.609375 52.164062 C 131.394531 49.894531 135.679688 47.875 141.226562 45.859375 C 151.4375 42.078125 159.378906 39.429688 166.820312 37.285156 C 181.191406 33.25 195.941406 31.109375 210.691406 31.109375 C 214.976562 31.109375 219.136719 31.234375 223.296875 31.613281 C 232.878906 32.367188 241.957031 34.890625 250.277344 37.285156 C 257.464844 39.429688 265.910156 42.328125 273.601562 46.992188 C 287.59375 55.566406 296.167969 69.183594 298.6875 86.453125 C 299.949219 95.40625 301.839844 116.585938 295.410156 135.496094 C 295.160156 136.125 294.90625 136.882812 294.65625 137.511719 C 289.863281 150.246094 281.164062 161.84375 265.660156 167.515625 C 257.96875 170.417969 249.394531 171.804688 239.433594 171.804688 C 227.710938 171.804688 215.609375 169.914062 204.007812 168.023438 C 198.839844 167.140625 194.050781 166.382812 189.132812 165.753906 C 177.28125 164.238281 166.945312 163.484375 157.742188 163.484375 C 149.671875 163.484375 142.488281 163.988281 135.554688 165.121094 L 134.417969 165.375 C 131.898438 165.878906 129.25 166.632812 126.351562 167.644531 C 126.222656 167.644531 126.097656 167.769531 125.972656 167.769531 C 125.339844 168.023438 124.835938 168.273438 124.207031 168.527344 C 123.953125 168.652344 123.828125 168.652344 123.703125 168.777344 C 122.316406 169.410156 120.929688 170.039062 119.414062 170.417969 C 118.785156 170.542969 118.28125 170.667969 117.652344 170.796875 C 116.769531 170.921875 116.011719 171.046875 115.253906 171.171875 C 114.246094 171.300781 113.238281 171.425781 112.230469 171.425781 C 110.464844 171.425781 108.699219 171.171875 107.1875 170.796875 C 105.675781 170.417969 104.414062 169.660156 103.40625 168.902344 C 102.902344 168.527344 102.523438 168.148438 102.144531 167.644531 C 101.386719 166.761719 100.882812 165.753906 100.632812 164.492188 C 100.128906 162.851562 100 160.960938 100.253906 158.945312 C 100.253906 158.3125 100.378906 157.808594 100.503906 157.179688 C 101.007812 154.53125 101.890625 152.011719 103.152344 149.613281 C 103.78125 148.480469 112.355469 137.765625 113.996094 136.125 C 117.398438 132.847656 121.054688 129.820312 125.089844 127.425781 C 130.886719 123.769531 137.316406 120.996094 144 119.105469 C 153.328125 116.710938 163.667969 115.449219 175.011719 115.449219 C 183.710938 115.449219 192.914062 116.207031 202.621094 117.59375 C 208.421875 118.476562 214.347656 119.609375 220.019531 120.746094 C 223.800781 121.5 227.585938 122.132812 231.367188 122.886719 C 237.417969 123.898438 243.46875 124.777344 249.648438 125.285156 C 252.292969 125.535156 254.941406 125.535156 257.589844 125.535156 L 259.101562 125.535156 C 267.046875 125.410156 274.355469 122.511719 279.023438 117.59375 C 282.929688 113.433594 284.945312 107.886719 284.695312 101.835938 C 284.695312 101.203125 284.191406 100.824219 283.6875 100.824219 C 283.433594 100.824219 283.183594 100.953125 282.929688 101.078125 C 282.804688 101.203125 282.679688 101.457031 282.679688 101.707031 C 282.929688 109.902344 279.148438 116.835938 272.214844 120.367188 C 268.179688 122.382812 263.515625 123.390625 257.464844 123.390625 C 254.3125 123.390625 251.285156 123.140625 248.007812 122.886719 C 242.839844 122.382812 237.542969 121.753906 232.375 120.871094 C 227.964844 120.113281 223.675781 119.359375 219.390625 118.601562 C 215.480469 117.84375 211.449219 117.089844 207.414062 116.457031 C 201.488281 115.449219 195.5625 114.566406 189.511719 114.1875 C 183.964844 113.8125 178.921875 113.558594 174.128906 113.558594 C 171.355469 113.558594 168.582031 113.683594 165.9375 113.8125 C 160.515625 114.0625 155.347656 114.695312 150.554688 115.574219 C 147.402344 116.207031 144.378906 116.960938 141.476562 117.84375 C 139.585938 118.476562 137.695312 118.980469 135.929688 119.734375 C 133.660156 120.617188 131.519531 121.628906 129.375 122.636719 C 126.980469 123.898438 124.585938 125.15625 122.441406 126.671875 C 118.15625 129.570312 114.246094 132.847656 110.71875 136.503906 C 109.835938 137.511719 108.953125 138.394531 108.070312 139.402344 C 107.945312 139.402344 107.945312 139.277344 107.816406 139.277344 C 106.050781 138.269531 104.539062 137.132812 103.152344 135.621094 C 95.460938 126.796875 92.058594 112.296875 91.554688 107.003906 Z M 90.167969 132.59375 C 92.5625 131.964844 94.957031 131.207031 97.351562 130.328125 C 97.730469 131.335938 98.488281 132.21875 98.992188 133.226562 C 99.621094 134.359375 100.503906 135.496094 101.386719 136.378906 C 101.765625 136.757812 106.429688 141.292969 106.808594 140.789062 C 106.429688 141.292969 106.050781 141.796875 105.675781 142.429688 C 102.523438 145.707031 99.496094 151.128906 98.363281 156.421875 C 97.730469 156.171875 97.101562 155.917969 96.472656 155.792969 C 94.578125 155.164062 92.6875 154.53125 90.671875 153.777344 C 86.761719 152.515625 82.980469 151.253906 79.074219 149.992188 C 77.9375 149.613281 76.804688 149.238281 75.667969 148.859375 C 74.914062 148.605469 74.03125 148.355469 73.273438 148.101562 C 68.609375 146.589844 63.945312 144.949219 59.152344 143.691406 C 57.261719 143.183594 55.246094 142.808594 53.230469 142.554688 C 53.984375 142.554688 55.121094 142.050781 55.75 141.796875 C 56.632812 141.546875 57.515625 141.292969 58.269531 141.042969 C 60.035156 140.539062 61.675781 140.035156 63.441406 139.65625 C 69.113281 138.015625 74.914062 136.503906 80.585938 134.992188 C 83.988281 134.234375 87.140625 133.476562 90.167969 132.59375 Z M 42.386719 150.371094 C 47.429688 141.292969 57.765625 145.078125 65.582031 147.597656 C 67.347656 148.226562 69.113281 148.734375 71.003906 149.238281 C 71.761719 149.488281 72.644531 149.742188 73.527344 149.992188 C 81.71875 152.515625 89.914062 155.164062 97.984375 158.0625 C 88.148438 165.625 83.988281 177.601562 86.890625 189.832031 C 82.476562 188.191406 77.9375 186.679688 73.527344 185.042969 C 72.894531 184.789062 72.265625 184.535156 71.636719 184.410156 C 62.179688 181.007812 52.597656 177.601562 43.015625 174.074219 C 41.503906 171.300781 40.371094 168.273438 39.863281 165.121094 C 39.738281 164.492188 39.738281 163.988281 39.613281 163.355469 C 39.359375 158.816406 40.117188 154.40625 42.386719 150.371094 Z M 27.132812 200.925781 C 31.542969 197.523438 34.820312 193.234375 34.949219 187.308594 C 35.074219 182.140625 32.804688 177.476562 29.652344 173.570312 C 41.378906 178.105469 52.722656 183.527344 63.945312 189.328125 C 64.449219 189.578125 65.078125 189.832031 65.582031 190.210938 C 81.46875 198.53125 97.101562 207.355469 113.363281 215.046875 C 142.738281 229.039062 173.121094 240.511719 203.503906 252.109375 C 203.632812 252.238281 203.882812 252.363281 204.136719 252.363281 C 204.515625 252.488281 205.019531 252.742188 205.394531 252.867188 C 205.523438 252.867188 205.648438 252.867188 205.773438 252.867188 C 209.933594 256.144531 210.691406 261.3125 210.1875 266.355469 C 210.1875 266.484375 210.0625 266.484375 210.0625 266.609375 C 209.179688 270.390625 207.539062 273.667969 205.019531 276.695312 C 204.890625 276.820312 204.765625 277.074219 204.765625 277.324219 C 185.980469 269.257812 167.195312 261.1875 148.414062 253.121094 C 145.007812 251.605469 141.605469 250.21875 138.199219 248.707031 C 105.675781 234.714844 73.148438 220.71875 40.621094 206.726562 C 39.992188 206.472656 39.488281 206.222656 38.855469 205.96875 C 34.949219 204.328125 31.039062 202.566406 27.132812 200.925781 Z M 38.855469 207.859375 C 43.394531 209.75 47.808594 211.769531 52.347656 213.660156 C 56.757812 215.550781 61.296875 217.566406 65.835938 219.457031 C 70.25 221.347656 74.785156 223.367188 79.199219 225.257812 C 83.613281 227.148438 88.148438 229.167969 92.6875 231.058594 C 97.101562 232.949219 101.640625 234.964844 106.179688 236.855469 C 110.589844 238.746094 115.128906 240.765625 119.542969 242.65625 C 121.8125 243.664062 123.953125 244.546875 126.097656 245.554688 C 108.195312 240.636719 90.292969 235.46875 72.390625 230.046875 C 57.390625 225.636719 42.511719 220.972656 27.636719 216.179688 C 27.511719 216.179688 27.382812 216.054688 27.257812 216.054688 C 27.132812 216.054688 27.003906 215.929688 26.753906 215.929688 C 30.789062 213.15625 34.820312 210.507812 38.855469 207.859375 Z M 73.023438 264.214844 C 57.640625 260.304688 43.144531 255.894531 27.886719 251.859375 C 27.886719 251.859375 27.886719 251.734375 27.761719 251.734375 C 21.457031 248.832031 17.171875 242.53125 17.171875 235.59375 C 17.171875 228.285156 20.449219 221.855469 25.746094 217.1875 C 61.925781 228.535156 99.875 239.882812 136.433594 249.96875 C 139.714844 251.355469 142.992188 252.742188 146.269531 254.253906 C 150.679688 256.144531 155.21875 258.164062 159.632812 260.054688 C 164.171875 261.945312 168.582031 263.960938 173.121094 265.851562 C 177.535156 267.742188 182.074219 269.761719 186.613281 271.652344 C 191.023438 273.542969 195.5625 275.558594 199.976562 277.453125 C 200.984375 277.828125 201.867188 278.332031 202.875 278.710938 C 203.757812 279.089844 204.640625 279.59375 205.648438 279.847656 C 206.78125 280.097656 207.539062 279.34375 208.421875 278.839844 C 209.429688 278.207031 210.3125 277.703125 211.320312 277.074219 C 213.210938 275.9375 215.230469 274.675781 217.246094 273.542969 C 218.382812 272.914062 219.390625 272.28125 220.523438 271.652344 C 226.449219 273.039062 232.5 274.550781 238.425781 275.9375 C 238.554688 275.9375 238.679688 275.9375 238.679688 275.9375 C 238.804688 276.316406 239.183594 276.695312 239.6875 276.570312 C 237.417969 281.484375 235.90625 286.78125 235.652344 292.203125 C 235.527344 294.976562 235.652344 297.75 236.285156 300.523438 C 236.410156 300.902344 237.417969 303.800781 238.300781 305.816406 C 182.957031 292.453125 128.113281 278.332031 73.023438 264.214844 Z M 240.316406 306.824219 C 240.191406 306.195312 239.8125 305.691406 239.433594 304.808594 C 237.921875 301.65625 237.292969 298.253906 237.167969 294.722656 C 236.914062 288.167969 238.679688 281.613281 241.703125 275.8125 C 241.832031 275.433594 241.832031 275.183594 241.578125 274.929688 C 268.683594 253.625 295.664062 232.191406 322.769531 210.886719 C 323.777344 210.003906 324.910156 209.246094 325.921875 208.363281 C 329.449219 205.84375 332.855469 203.449219 336.257812 200.925781 C 340.417969 197.898438 345.714844 195.125 349.242188 191.21875 C 349.117188 191.722656 349.117188 192.101562 349.117188 192.605469 C 349.117188 194.496094 349.621094 196.261719 350.628906 197.898438 C 351.640625 199.539062 353.78125 202.691406 356.050781 203.699219 C 319.363281 240.132812 280.660156 274.550781 240.316406 306.824219 Z M 240.316406 306.824219 "/></g><path style=" stroke:none;fill-rule:nonzero;fill:#365b6d;fill-opacity:1;" d="M 148.160156 80.023438 C 148.539062 80.023438 148.789062 79.898438 149.042969 79.519531 C 152.949219 73.847656 160.261719 71.324219 166.1875 69.9375 C 167.449219 74.476562 168.332031 80.78125 165.9375 84.816406 C 165.683594 85.066406 165.683594 85.445312 165.9375 85.824219 C 166.1875 86.203125 166.441406 86.328125 166.820312 86.328125 C 167.195312 86.328125 167.449219 86.203125 167.699219 85.824219 C 170.601562 80.90625 169.464844 73.59375 167.953125 68.425781 C 167.828125 68.046875 167.449219 67.667969 166.820312 67.667969 L 166.691406 67.667969 C 160.011719 69.183594 151.816406 71.828125 147.402344 78.386719 C 147.152344 78.636719 147.152344 79.015625 147.277344 79.265625 C 147.402344 79.898438 147.78125 80.023438 148.160156 80.023438 Z M 148.160156 80.023438 "/><path style=" stroke:none;fill-rule:nonzero;fill:#365b6d;fill-opacity:1;" d="M 123.828125 113.308594 C 124.585938 114.1875 125.214844 114.945312 126.351562 115.324219 C 126.222656 116.207031 126.351562 117.089844 126.351562 117.972656 C 126.351562 118.347656 126.351562 118.726562 126.351562 119.230469 C 126.351562 119.863281 126.855469 120.242188 127.359375 120.242188 C 127.609375 120.242188 127.863281 120.113281 128.113281 119.988281 C 128.242188 119.863281 128.367188 119.609375 128.367188 119.359375 C 128.367188 118.980469 128.367188 118.476562 128.367188 118.097656 C 128.242188 117.214844 128.242188 116.332031 128.367188 115.574219 L 128.367188 115.449219 C 129.25 115.070312 130.003906 114.316406 130.761719 113.558594 C 131.140625 113.179688 131.394531 112.929688 131.769531 112.550781 C 132.023438 112.296875 132.148438 111.917969 132.023438 111.542969 C 131.898438 111.164062 131.394531 110.785156 131.015625 110.785156 C 130.761719 110.785156 130.511719 110.910156 130.382812 111.039062 C 130.132812 111.289062 129.878906 111.542969 129.5 111.917969 C 128.871094 112.675781 128.113281 113.433594 127.230469 113.558594 C 126.476562 113.558594 125.84375 112.675781 125.214844 111.917969 C 124.964844 111.542969 124.710938 111.289062 124.457031 111.039062 C 124.207031 110.910156 124.082031 110.785156 123.828125 110.785156 C 123.449219 110.785156 122.945312 111.039062 122.820312 111.414062 C 122.695312 111.792969 122.820312 112.171875 123.070312 112.425781 C 123.199219 112.550781 123.449219 112.800781 123.828125 113.308594 Z M 123.828125 113.308594 "/><path style=" stroke:none;fill-rule:nonzero;fill:#365b6d;fill-opacity:1;" d="M 146.015625 108.894531 C 148.539062 108.894531 150.933594 107.757812 152.320312 105.867188 C 152.574219 105.492188 152.574219 105.113281 152.445312 104.734375 C 152.195312 104.355469 151.941406 104.101562 151.5625 104.101562 C 151.3125 104.101562 151.058594 104.230469 150.933594 104.480469 C 149.800781 105.867188 147.90625 106.878906 145.890625 106.878906 C 144.125 106.878906 142.738281 106.246094 141.855469 104.984375 C 141.605469 104.734375 141.351562 104.609375 140.972656 104.609375 C 140.597656 104.609375 140.21875 104.859375 139.964844 105.238281 C 139.839844 105.492188 139.839844 105.867188 140.089844 106.121094 C 141.476562 107.886719 143.621094 108.894531 146.015625 108.894531 Z M 146.015625 108.894531 "/><path style=" stroke:none;fill-rule:nonzero;fill:#365b6d;fill-opacity:1;" d="M 106.179688 119.230469 C 97.480469 114.820312 87.773438 112.929688 78.191406 113.683594 C 76.929688 113.8125 77.308594 115.574219 78.570312 115.574219 C 87.898438 114.820312 97.351562 116.835938 105.675781 120.996094 C 106.554688 121.5 107.1875 119.734375 106.179688 119.230469 Z M 106.179688 119.230469 "/><path style=" stroke:none;fill-rule:nonzero;fill:#365b6d;fill-opacity:1;" d="M 105.800781 124.273438 C 96.34375 122.132812 86.386719 122.761719 77.308594 125.789062 C 76.171875 126.164062 76.929688 127.929688 78.066406 127.550781 C 86.890625 124.527344 96.472656 124.148438 105.675781 126.164062 C 106.683594 126.417969 106.933594 124.527344 105.800781 124.273438 Z M 105.800781 124.273438 "/><path style=" stroke:none;fill-rule:nonzero;fill:#365b6d;fill-opacity:1;" d="M 106.304688 128.941406 C 97.605469 131.460938 90.292969 133.980469 83.484375 140.789062 C 82.601562 141.671875 83.988281 142.808594 85 141.925781 C 92.3125 135.496094 99.117188 132.59375 107.0625 130.703125 C 108.195312 130.453125 107.4375 128.5625 106.304688 128.941406 Z M 106.304688 128.941406 "/><g style="fill:#365b6d;fill-opacity:1;"><g transform="translate(102.606711, 353.873326)"><path style="stroke:none" d="M 9.453125 0.25 C 7.816406 0.25 6.382812 0.0195312 5.15625 -0.4375 C 3.925781 -0.90625 2.976562 -1.554688 2.3125 -2.390625 C 1.65625 -3.222656 1.328125 -4.171875 1.328125 -5.234375 L 1.328125 -5.40625 C 1.328125 -5.820312 1.535156 -6.03125 1.953125 -6.03125 L 5.671875 -6.03125 C 6.085938 -6.03125 6.296875 -5.957031 6.296875 -5.8125 L 6.296875 -5.5625 C 6.296875 -5.019531 6.585938 -4.554688 7.171875 -4.171875 C 7.765625 -3.796875 8.515625 -3.609375 9.421875 -3.609375 C 10.253906 -3.609375 10.925781 -3.765625 11.4375 -4.078125 C 11.957031 -4.398438 12.21875 -4.820312 12.21875 -5.34375 C 12.21875 -5.78125 11.992188 -6.109375 11.546875 -6.328125 C 11.109375 -6.546875 10.390625 -6.78125 9.390625 -7.03125 C 8.179688 -7.351562 7.285156 -7.632812 6.703125 -7.875 C 5.109375 -8.414062 3.84375 -9.078125 2.90625 -9.859375 C 1.976562 -10.648438 1.515625 -11.78125 1.515625 -13.25 C 1.515625 -15.070312 2.222656 -16.515625 3.640625 -17.578125 C 5.066406 -18.640625 6.929688 -19.171875 9.234375 -19.171875 C 10.804688 -19.171875 12.1875 -18.921875 13.375 -18.421875 C 14.570312 -17.921875 15.492188 -17.21875 16.140625 -16.3125 C 16.796875 -15.40625 17.125 -14.375 17.125 -13.21875 C 17.125 -13.09375 17.066406 -12.988281 16.953125 -12.90625 C 16.835938 -12.820312 16.679688 -12.78125 16.484375 -12.78125 L 12.890625 -12.78125 C 12.472656 -12.78125 12.265625 -12.851562 12.265625 -13 L 12.265625 -13.21875 C 12.265625 -13.757812 11.992188 -14.210938 11.453125 -14.578125 C 10.910156 -14.941406 10.1875 -15.125 9.28125 -15.125 C 8.46875 -15.125 7.796875 -14.976562 7.265625 -14.6875 C 6.742188 -14.394531 6.484375 -13.988281 6.484375 -13.46875 C 6.484375 -12.976562 6.734375 -12.609375 7.234375 -12.359375 C 7.734375 -12.117188 8.5625 -11.863281 9.71875 -11.59375 C 10.425781 -11.445312 11.113281 -11.265625 11.78125 -11.046875 C 13.550781 -10.523438 14.9375 -9.859375 15.9375 -9.046875 C 16.945312 -8.242188 17.453125 -7.066406 17.453125 -5.515625 C 17.453125 -3.703125 16.726562 -2.285156 15.28125 -1.265625 C 13.832031 -0.253906 11.890625 0.25 9.453125 0.25 Z M 9.453125 0.25 "/></g></g><g style="fill:#365b6d;fill-opacity:1;"><g transform="translate(121.121465, 353.873326)"><path style="stroke:none" d="M 4.78125 -20.71875 C 3.851562 -20.71875 3.09375 -21.003906 2.5 -21.578125 C 1.914062 -22.160156 1.625 -22.90625 1.625 -23.8125 C 1.625 -24.726562 1.914062 -25.472656 2.5 -26.046875 C 3.09375 -26.617188 3.851562 -26.90625 4.78125 -26.90625 C 5.738281 -26.90625 6.503906 -26.625 7.078125 -26.0625 C 7.660156 -25.5 7.953125 -24.75 7.953125 -23.8125 C 7.953125 -22.882812 7.660156 -22.132812 7.078125 -21.5625 C 6.503906 -21 5.738281 -20.71875 4.78125 -20.71875 Z M 2.828125 0 C 2.410156 0 2.203125 -0.207031 2.203125 -0.625 L 2.203125 -18.296875 C 2.203125 -18.710938 2.410156 -18.921875 2.828125 -18.921875 L 6.78125 -18.921875 C 7.195312 -18.921875 7.40625 -18.710938 7.40625 -18.296875 L 7.40625 -0.625 C 7.40625 -0.207031 7.195312 0 6.78125 0 Z M 2.828125 0 "/></g></g><g style="fill:#365b6d;fill-opacity:1;"><g transform="translate(130.691723, 353.873326)"><path style="stroke:none" d="M 22.890625 -19.21875 C 24.804688 -19.21875 26.304688 -18.640625 27.390625 -17.484375 C 28.472656 -16.328125 29.015625 -14.707031 29.015625 -12.625 L 29.015625 -0.625 C 29.015625 -0.207031 28.800781 0 28.375 0 L 24.4375 0 C 24.019531 0 23.8125 -0.207031 23.8125 -0.625 L 23.8125 -11.484375 C 23.8125 -12.492188 23.550781 -13.289062 23.03125 -13.875 C 22.519531 -14.46875 21.835938 -14.765625 20.984375 -14.765625 C 20.117188 -14.765625 19.414062 -14.46875 18.875 -13.875 C 18.34375 -13.289062 18.078125 -12.503906 18.078125 -11.515625 L 18.078125 -0.625 C 18.078125 -0.207031 17.867188 0 17.453125 0 L 13.546875 0 C 13.128906 0 12.921875 -0.207031 12.921875 -0.625 L 12.921875 -11.484375 C 12.921875 -12.460938 12.648438 -13.253906 12.109375 -13.859375 C 11.566406 -14.460938 10.867188 -14.765625 10.015625 -14.765625 C 9.222656 -14.765625 8.5625 -14.53125 8.03125 -14.0625 C 7.507812 -13.59375 7.203125 -12.941406 7.109375 -12.109375 L 7.109375 -0.625 C 7.109375 -0.207031 6.898438 0 6.484375 0 L 2.546875 0 C 2.128906 0 1.921875 -0.207031 1.921875 -0.625 L 1.921875 -18.296875 C 1.921875 -18.710938 2.128906 -18.921875 2.546875 -18.921875 L 6.484375 -18.921875 C 6.898438 -18.921875 7.109375 -18.710938 7.109375 -18.296875 L 7.109375 -17.125 C 7.109375 -17.019531 7.132812 -16.953125 7.1875 -16.921875 C 7.25 -16.898438 7.304688 -16.941406 7.359375 -17.046875 C 8.367188 -18.492188 9.914062 -19.21875 12 -19.21875 C 13.226562 -19.21875 14.296875 -18.960938 15.203125 -18.453125 C 16.109375 -17.953125 16.804688 -17.222656 17.296875 -16.265625 C 17.328125 -16.171875 17.367188 -16.128906 17.421875 -16.140625 C 17.484375 -16.148438 17.539062 -16.191406 17.59375 -16.265625 C 18.15625 -17.253906 18.890625 -17.992188 19.796875 -18.484375 C 20.710938 -18.972656 21.742188 -19.21875 22.890625 -19.21875 Z M 22.890625 -19.21875 "/></g></g><g style="fill:#365b6d;fill-opacity:1;"><g transform="translate(161.426958, 353.873326)"><path style="stroke:none" d="M 18.84375 -13.8125 C 19.257812 -12.625 19.46875 -11.148438 19.46875 -9.390625 C 19.46875 -7.566406 19.238281 -6.046875 18.78125 -4.828125 C 18.238281 -3.253906 17.347656 -2 16.109375 -1.0625 C 14.867188 -0.132812 13.414062 0.328125 11.75 0.328125 C 9.925781 0.328125 8.523438 -0.269531 7.546875 -1.46875 C 7.492188 -1.539062 7.4375 -1.566406 7.375 -1.546875 C 7.3125 -1.523438 7.28125 -1.460938 7.28125 -1.359375 L 7.28125 6.21875 C 7.28125 6.632812 7.070312 6.84375 6.65625 6.84375 L 2.71875 6.84375 C 2.300781 6.84375 2.09375 6.632812 2.09375 6.21875 L 2.09375 -18.296875 C 2.09375 -18.710938 2.300781 -18.921875 2.71875 -18.921875 L 6.65625 -18.921875 C 7.070312 -18.921875 7.28125 -18.710938 7.28125 -18.296875 L 7.28125 -17.296875 C 7.28125 -17.203125 7.3125 -17.148438 7.375 -17.140625 C 7.4375 -17.128906 7.492188 -17.160156 7.546875 -17.234375 C 8.554688 -18.554688 9.957031 -19.21875 11.75 -19.21875 C 13.414062 -19.21875 14.890625 -18.71875 16.171875 -17.71875 C 17.460938 -16.726562 18.351562 -15.425781 18.84375 -13.8125 Z M 13.140625 -5.625 C 13.734375 -6.613281 14.03125 -7.90625 14.03125 -9.5 C 14.03125 -10.945312 13.769531 -12.148438 13.25 -13.109375 C 12.664062 -14.160156 11.769531 -14.6875 10.5625 -14.6875 C 9.488281 -14.6875 8.65625 -14.160156 8.0625 -13.109375 C 7.570312 -12.203125 7.328125 -10.984375 7.328125 -9.453125 C 7.328125 -7.859375 7.582031 -6.597656 8.09375 -5.671875 C 8.707031 -4.710938 9.53125 -4.234375 10.5625 -4.234375 C 11.695312 -4.234375 12.554688 -4.695312 13.140625 -5.625 Z M 13.140625 -5.625 "/></g></g><g style="fill:#365b6d;fill-opacity:1;"><g transform="translate(182.002999, 353.873326)"><path style="stroke:none" d="M 2.609375 0 C 2.191406 0 1.984375 -0.207031 1.984375 -0.625 L 1.984375 -25.140625 C 1.984375 -25.554688 2.191406 -25.765625 2.609375 -25.765625 L 6.546875 -25.765625 C 6.960938 -25.765625 7.171875 -25.554688 7.171875 -25.140625 L 7.171875 -0.625 C 7.171875 -0.207031 6.960938 0 6.546875 0 Z M 2.609375 0 "/></g></g><g style="fill:#365b6d;fill-opacity:1;"><g transform="translate(191.168354, 353.873326)"><path style="stroke:none" d="M 11.046875 -4.09375 C 12.660156 -4.164062 13.898438 -4.726562 14.765625 -5.78125 C 14.910156 -5.945312 15.066406 -6.03125 15.234375 -6.03125 C 15.390625 -6.03125 15.523438 -5.972656 15.640625 -5.859375 L 17.75 -3.828125 C 17.894531 -3.679688 17.96875 -3.535156 17.96875 -3.390625 C 17.96875 -3.210938 17.914062 -3.0625 17.8125 -2.9375 C 17.007812 -1.9375 15.972656 -1.144531 14.703125 -0.5625 C 13.441406 0.0078125 12.0625 0.296875 10.5625 0.296875 C 8.300781 0.296875 6.425781 -0.28125 4.9375 -1.4375 C 3.457031 -2.59375 2.460938 -4.175781 1.953125 -6.1875 C 1.660156 -7.257812 1.515625 -8.398438 1.515625 -9.609375 C 1.515625 -11.035156 1.648438 -12.238281 1.921875 -13.21875 C 2.410156 -15.03125 3.394531 -16.488281 4.875 -17.59375 C 6.363281 -18.695312 8.125 -19.25 10.15625 -19.25 C 12.5625 -19.25 14.46875 -18.535156 15.875 -17.109375 C 17.289062 -15.691406 18.207031 -13.695312 18.625 -11.125 C 18.726562 -10.3125 18.800781 -9.414062 18.84375 -8.4375 C 18.84375 -8.007812 18.632812 -7.796875 18.21875 -7.796875 L 6.921875 -7.796875 C 6.773438 -7.796875 6.703125 -7.722656 6.703125 -7.578125 C 6.773438 -7.066406 6.859375 -6.6875 6.953125 -6.4375 C 7.203125 -5.675781 7.6875 -5.09375 8.40625 -4.6875 C 9.132812 -4.289062 10.015625 -4.09375 11.046875 -4.09375 Z M 10.09375 -14.765625 C 9.300781 -14.765625 8.640625 -14.570312 8.109375 -14.1875 C 7.585938 -13.8125 7.226562 -13.28125 7.03125 -12.59375 C 6.90625 -12.125 6.832031 -11.816406 6.8125 -11.671875 C 6.789062 -11.523438 6.851562 -11.453125 7 -11.453125 L 13.25 -11.453125 C 13.375 -11.453125 13.4375 -11.5 13.4375 -11.59375 C 13.4375 -11.863281 13.390625 -12.144531 13.296875 -12.4375 C 13.066406 -13.15625 12.679688 -13.722656 12.140625 -14.140625 C 11.609375 -14.554688 10.925781 -14.765625 10.09375 -14.765625 Z M 10.09375 -14.765625 "/></g></g><g style="fill:#365b6d;fill-opacity:1;"><g transform="translate(211.302699, 353.873326)"><path style="stroke:none" d=""/></g></g><g style="fill:#365b6d;fill-opacity:1;"><g transform="translate(218.664431, 353.873326)"><path style="stroke:none" d="M 2.609375 0 C 2.191406 0 1.984375 -0.207031 1.984375 -0.625 L 1.984375 -25.140625 C 1.984375 -25.554688 2.191406 -25.765625 2.609375 -25.765625 L 6.546875 -25.765625 C 6.960938 -25.765625 7.171875 -25.554688 7.171875 -25.140625 L 7.171875 -0.625 C 7.171875 -0.207031 6.960938 0 6.546875 0 Z M 2.609375 0 "/></g></g><g style="fill:#365b6d;fill-opacity:1;"><g transform="translate(227.829786, 353.873326)"><path style="stroke:none" d="M 4.78125 -20.71875 C 3.851562 -20.71875 3.09375 -21.003906 2.5 -21.578125 C 1.914062 -22.160156 1.625 -22.90625 1.625 -23.8125 C 1.625 -24.726562 1.914062 -25.472656 2.5 -26.046875 C 3.09375 -26.617188 3.851562 -26.90625 4.78125 -26.90625 C 5.738281 -26.90625 6.503906 -26.625 7.078125 -26.0625 C 7.660156 -25.5 7.953125 -24.75 7.953125 -23.8125 C 7.953125 -22.882812 7.660156 -22.132812 7.078125 -21.5625 C 6.503906 -21 5.738281 -20.71875 4.78125 -20.71875 Z M 2.828125 0 C 2.410156 0 2.203125 -0.207031 2.203125 -0.625 L 2.203125 -18.296875 C 2.203125 -18.710938 2.410156 -18.921875 2.828125 -18.921875 L 6.78125 -18.921875 C 7.195312 -18.921875 7.40625 -18.710938 7.40625 -18.296875 L 7.40625 -0.625 C 7.40625 -0.207031 7.195312 0 6.78125 0 Z M 2.828125 0 "/></g></g><g style="fill:#365b6d;fill-opacity:1;"><g transform="translate(237.400045, 353.873326)"><path style="stroke:none" d="M 12.515625 -18.953125 C 12.929688 -18.953125 13.140625 -18.742188 13.140625 -18.328125 L 13.140625 -15.203125 C 13.140625 -14.785156 12.929688 -14.578125 12.515625 -14.578125 L 9.171875 -14.578125 C 9.023438 -14.578125 8.953125 -14.503906 8.953125 -14.359375 L 8.953125 -0.625 C 8.953125 -0.207031 8.738281 0 8.3125 0 L 4.375 0 C 3.957031 0 3.75 -0.207031 3.75 -0.625 L 3.75 -14.359375 C 3.75 -14.503906 3.675781 -14.578125 3.53125 -14.578125 L 1.578125 -14.578125 C 1.160156 -14.578125 0.953125 -14.785156 0.953125 -15.203125 L 0.953125 -18.328125 C 0.953125 -18.742188 1.160156 -18.953125 1.578125 -18.953125 L 3.53125 -18.953125 C 3.675781 -18.953125 3.75 -19.023438 3.75 -19.171875 L 3.75 -19.953125 C 3.75 -21.472656 3.984375 -22.65625 4.453125 -23.5 C 4.921875 -24.351562 5.675781 -24.957031 6.71875 -25.3125 C 7.757812 -25.664062 9.203125 -25.816406 11.046875 -25.765625 L 12.265625 -25.765625 C 12.679688 -25.765625 12.890625 -25.554688 12.890625 -25.140625 L 12.890625 -22.53125 C 12.890625 -22.113281 12.679688 -21.90625 12.265625 -21.90625 L 11.234375 -21.90625 C 10.367188 -21.875 9.769531 -21.691406 9.4375 -21.359375 C 9.113281 -21.035156 8.953125 -20.429688 8.953125 -19.546875 L 8.953125 -19.171875 C 8.953125 -19.023438 9.023438 -18.953125 9.171875 -18.953125 Z M 12.515625 -18.953125 "/></g></g><g style="fill:#365b6d;fill-opacity:1;"><g transform="translate(251.644997, 353.873326)"><path style="stroke:none" d="M 11.046875 -4.09375 C 12.660156 -4.164062 13.898438 -4.726562 14.765625 -5.78125 C 14.910156 -5.945312 15.066406 -6.03125 15.234375 -6.03125 C 15.390625 -6.03125 15.523438 -5.972656 15.640625 -5.859375 L 17.75 -3.828125 C 17.894531 -3.679688 17.96875 -3.535156 17.96875 -3.390625 C 17.96875 -3.210938 17.914062 -3.0625 17.8125 -2.9375 C 17.007812 -1.9375 15.972656 -1.144531 14.703125 -0.5625 C 13.441406 0.0078125 12.0625 0.296875 10.5625 0.296875 C 8.300781 0.296875 6.425781 -0.28125 4.9375 -1.4375 C 3.457031 -2.59375 2.460938 -4.175781 1.953125 -6.1875 C 1.660156 -7.257812 1.515625 -8.398438 1.515625 -9.609375 C 1.515625 -11.035156 1.648438 -12.238281 1.921875 -13.21875 C 2.410156 -15.03125 3.394531 -16.488281 4.875 -17.59375 C 6.363281 -18.695312 8.125 -19.25 10.15625 -19.25 C 12.5625 -19.25 14.46875 -18.535156 15.875 -17.109375 C 17.289062 -15.691406 18.207031 -13.695312 18.625 -11.125 C 18.726562 -10.3125 18.800781 -9.414062 18.84375 -8.4375 C 18.84375 -8.007812 18.632812 -7.796875 18.21875 -7.796875 L 6.921875 -7.796875 C 6.773438 -7.796875 6.703125 -7.722656 6.703125 -7.578125 C 6.773438 -7.066406 6.859375 -6.6875 6.953125 -6.4375 C 7.203125 -5.675781 7.6875 -5.09375 8.40625 -4.6875 C 9.132812 -4.289062 10.015625 -4.09375 11.046875 -4.09375 Z M 10.09375 -14.765625 C 9.300781 -14.765625 8.640625 -14.570312 8.109375 -14.1875 C 7.585938 -13.8125 7.226562 -13.28125 7.03125 -12.59375 C 6.90625 -12.125 6.832031 -11.816406 6.8125 -11.671875 C 6.789062 -11.523438 6.851562 -11.453125 7 -11.453125 L 13.25 -11.453125 C 13.375 -11.453125 13.4375 -11.5 13.4375 -11.59375 C 13.4375 -11.863281 13.390625 -12.144531 13.296875 -12.4375 C 13.066406 -13.15625 12.679688 -13.722656 12.140625 -14.140625 C 11.609375 -14.554688 10.925781 -14.765625 10.09375 -14.765625 Z M 10.09375 -14.765625 "/></g></g></g></svg>