<svg xmlns="http://www.w3.org/2000/svg" xmlns:xlink="http://www.w3.org/1999/xlink" width="500" zoomAndPan="magnify" viewBox="0 0 375 374.999991" height="500" preserveAspectRatio="xMidYMid meet" version="1.2"><defs><clipPath id="83811b862e"><path d="M 0 34.6875 L 375 34.6875 L 375 340 L 0 340 Z M 0 34.6875 "/></clipPath></defs><g id="11a59c3f9d"><path style=" stroke:none;fill-rule:nonzero;fill:#365b6d;fill-opacity:1;" d="M 101.996094 124.40625 C 104.746094 124.40625 107.359375 123.167969 108.871094 121.105469 C 109.144531 120.691406 109.144531 120.28125 109.007812 119.867188 C 108.734375 119.457031 108.457031 119.179688 108.046875 119.179688 C 107.769531 119.179688 107.496094 119.316406 107.359375 119.59375 C 106.121094 121.105469 104.058594 122.203125 101.859375 122.203125 C 99.9375 122.203125 98.421875 121.515625 97.460938 120.144531 C 97.1875 119.867188 96.910156 119.730469 96.5 119.730469 C 96.085938 119.730469 95.675781 120.003906 95.398438 120.28125 C 95.261719 120.554688 95.261719 120.96875 95.535156 121.242188 C 96.910156 123.304688 99.386719 124.40625 101.996094 124.40625 Z M 101.996094 124.40625 "/><g clip-rule="nonzero" clip-path="url(#83811b862e)"><path style=" stroke:none;fill-rule:nonzero;fill:#365b6d;fill-opacity:1;" d="M 374.449219 223.789062 C 374.3125 223.515625 373.898438 223.515625 373.625 223.378906 C 373.488281 223.378906 373.351562 223.242188 373.214844 223.242188 C 370.601562 222.277344 368.402344 220.214844 367.300781 217.742188 C 366.613281 216.09375 366.339844 214.167969 366.476562 212.378906 C 366.476562 210.867188 366.890625 209.492188 366.339844 208.121094 C 365.238281 205.644531 365.652344 202.484375 364.003906 200.007812 C 358.917969 192.722656 347.644531 193.273438 346.132812 193 C 341.457031 192.035156 336.511719 191.761719 331.835938 191.074219 C 335.136719 189.148438 338.433594 187.226562 341.597656 185.164062 C 342.285156 184.613281 342.007812 183.652344 341.183594 183.375 C 340.085938 183.101562 338.984375 182.828125 337.886719 182.550781 C 337.886719 182.550781 337.886719 182.550781 337.746094 182.550781 C 337.609375 182.414062 337.609375 182.277344 337.335938 182.140625 C 329.5 178.152344 332.113281 165.917969 336.371094 160.417969 C 336.785156 159.871094 336.511719 159.320312 336.097656 159.046875 C 336.097656 159.046875 335.960938 158.90625 335.960938 158.90625 C 333.898438 157.671875 329.363281 156.707031 328.949219 156.570312 C 321.527344 154.921875 314.378906 153.273438 307.503906 151.621094 C 313.417969 133.75 312.867188 113.820312 311.21875 99.660156 C 309.15625 81.652344 301.730469 67.355469 289.222656 57.320312 C 277.8125 48.25 261.316406 41.652344 238.910156 37.390625 C 230.664062 35.742188 221.726562 34.914062 212.519531 34.914062 C 198.359375 34.914062 183.238281 36.976562 168.804688 40.6875 C 159.183594 43.164062 149.011719 46.460938 135.8125 51.410156 C 128.941406 54.023438 120.003906 57.734375 112.582031 64.332031 L 112.171875 64.746094 C 109.832031 66.394531 107.769531 68.457031 105.710938 70.519531 C 105.023438 71.207031 104.335938 71.894531 103.648438 72.582031 C 102.824219 73.40625 101.859375 74.230469 100.898438 75.191406 C 98.5625 77.390625 96.222656 79.589844 94.164062 81.929688 C 94.023438 81.929688 93.886719 82.066406 93.886719 82.203125 C 91.6875 80.691406 89.078125 79.589844 86.601562 78.628906 C 85.503906 78.214844 84.539062 77.804688 83.441406 77.253906 C 82.617188 76.84375 81.789062 76.703125 81.101562 76.703125 C 79.453125 76.703125 78.355469 77.941406 77.941406 80.554688 C 76.566406 88.527344 76.015625 99.25 80.964844 104.335938 L 80.964844 104.746094 C 81.101562 107.359375 80.964844 109.96875 80.691406 112.582031 C 80.417969 115.46875 80.140625 118.628906 80.554688 121.65625 C 81.101562 125.640625 82.066406 129.628906 83.441406 133.476562 C 84.128906 135.402344 84.816406 137.1875 85.640625 139.113281 C 85.777344 139.523438 87.839844 144.199219 88.113281 144.199219 C 87.703125 144.335938 87.425781 144.335938 87.015625 144.472656 C 77.53125 146.949219 68.183594 149.558594 58.695312 152.035156 C 54.296875 153.273438 49.625 154.507812 44.8125 155.882812 C 42.476562 156.570312 40.140625 157.121094 37.800781 157.945312 C 36.976562 158.21875 36.152344 158.769531 35.328125 159.183594 C 34.367188 159.730469 33.402344 160.144531 32.441406 160.695312 C 25.566406 165.230469 23.644531 173.890625 24.605469 182.140625 L 10.308594 188.601562 C 9.347656 189.011719 9.761719 190.386719 10.722656 190.386719 C 10.859375 190.523438 10.859375 190.523438 10.996094 190.660156 C 10.996094 190.9375 11.132812 191.210938 11.546875 191.210938 C 11.546875 191.210938 11.546875 191.210938 11.683594 191.210938 C 15.808594 195.472656 19.105469 200.558594 19.382812 206.746094 C 19.65625 213.34375 15.808594 217.878906 10.859375 221.589844 C 10.722656 221.589844 10.585938 221.453125 10.445312 221.453125 C 9.347656 221.042969 8.796875 222.414062 9.484375 223.101562 C 9.621094 223.789062 10.308594 224.339844 10.996094 223.789062 C 11.132812 223.652344 12.507812 224.476562 12.785156 224.476562 C 13.332031 224.753906 14.019531 225.027344 14.570312 225.300781 C 15.808594 225.851562 17.046875 226.402344 18.28125 226.953125 C 20.070312 227.777344 21.855469 228.464844 23.644531 229.289062 C 20.34375 231.488281 17.183594 233.550781 13.882812 235.75 C 13.058594 236.300781 12.234375 236.847656 11.410156 237.398438 C 10.722656 237.949219 9.898438 238.363281 9.347656 238.910156 C 0 247.707031 0 258.15625 0.273438 261.457031 C 0.6875 268.878906 5.222656 275.476562 11.683594 278.914062 C 11.820312 279.1875 11.960938 279.324219 12.234375 279.464844 C 72.03125 295.683594 130.589844 311.765625 190.800781 326.0625 C 208.121094 330.1875 225.441406 334.3125 242.761719 338.433594 C 242.761719 338.433594 242.898438 338.433594 242.898438 338.433594 C 242.898438 338.570312 242.898438 338.710938 243.035156 338.847656 C 243.449219 339.398438 243.585938 339.535156 244.410156 339.535156 C 244.546875 339.535156 244.546875 339.535156 244.683594 339.535156 C 244.960938 339.808594 245.507812 340.085938 245.921875 339.671875 C 247.570312 338.296875 249.222656 337.058594 250.871094 335.683594 C 265.304688 324 279.464844 312.179688 293.484375 300.082031 C 307.503906 287.984375 321.25 275.613281 334.859375 263.105469 C 341.597656 256.78125 348.332031 250.457031 355.066406 243.996094 C 358.367188 240.835938 361.804688 237.535156 365.101562 234.375 C 366.753906 232.726562 368.402344 231.074219 370.050781 229.5625 C 371.425781 228.328125 372.25 226.816406 373.761719 225.851562 C 374.449219 225.300781 375 224.339844 374.449219 223.789062 Z M 339.121094 203.445312 C 339.671875 203.035156 340.222656 202.621094 340.773438 202.070312 C 342.972656 200.285156 345.308594 198.496094 347.507812 196.574219 C 353.28125 195.609375 359.878906 197.121094 362.765625 202.757812 C 363.589844 204.546875 363.867188 206.195312 363.867188 207.707031 C 363.867188 208.121094 363.726562 208.667969 363.589844 209.082031 C 361.390625 211.96875 357.953125 213.894531 354.929688 216.09375 L 345.582031 222.828125 C 339.945312 226.816406 334.3125 230.9375 328.675781 234.925781 C 326.886719 236.023438 325.101562 237.261719 323.175781 238.363281 C 318.914062 240.972656 314.789062 243.585938 310.53125 246.195312 C 306.269531 248.808594 302.007812 251.28125 297.746094 253.894531 C 293.484375 256.367188 289.222656 258.980469 284.824219 261.457031 C 280.5625 263.929688 276.164062 266.402344 271.902344 268.878906 C 267.640625 271.351562 263.242188 273.828125 258.980469 276.300781 C 254.71875 278.777344 250.320312 281.25 246.058594 283.722656 C 241.796875 286.199219 237.398438 288.671875 233.136719 291.148438 C 229.703125 293.210938 226.265625 295.269531 222.828125 297.195312 C 222.140625 297.609375 221.453125 298.019531 220.628906 298.433594 C 220.492188 298.433594 220.355469 298.570312 220.355469 298.570312 L 214.03125 302.417969 C 212.929688 303.105469 211.96875 303.65625 210.867188 304.34375 C 210.042969 304.757812 209.355469 305.445312 208.394531 305.71875 C 211.007812 302.558594 212.792969 298.84375 213.753906 294.859375 C 213.753906 294.859375 213.753906 294.859375 213.894531 294.859375 C 214.582031 288.125 213.894531 281.113281 207.980469 276.988281 C 232.726562 264.753906 257.195312 251.96875 281.25 238.636719 C 300.90625 228.050781 321.25 217.191406 339.121094 203.445312 Z M 321.113281 241.933594 C 295.410156 262.28125 269.703125 282.488281 243.996094 302.695312 C 243.996094 302.417969 243.722656 302.144531 243.449219 302.007812 L 225.578125 297.746094 C 228.050781 296.371094 230.386719 294.859375 232.726562 293.484375 C 236.988281 291.011719 241.386719 288.398438 245.648438 285.921875 C 249.910156 283.449219 254.308594 280.976562 258.570312 278.5 C 262.96875 276.027344 267.230469 273.550781 271.488281 271.078125 C 275.75 268.601562 280.148438 266.128906 284.410156 263.65625 C 288.671875 261.179688 293.070312 258.707031 297.332031 256.09375 C 301.59375 253.480469 305.855469 251.007812 310.117188 248.394531 C 313.828125 246.335938 317.402344 244.136719 321.113281 241.933594 Z M 336.511719 184.0625 C 336.648438 184.199219 336.785156 184.199219 336.921875 184.199219 C 337.058594 184.339844 337.199219 184.476562 337.472656 184.613281 L 338.433594 184.886719 C 332.25 188.875 325.789062 192.449219 319.328125 195.746094 C 318.640625 196.160156 317.816406 196.574219 317.128906 196.847656 C 302.007812 204.546875 286.472656 211.144531 270.941406 218.015625 C 246.746094 228.738281 223.101562 240.835938 199.597656 253.070312 C 192.449219 243.171875 190.25 226.675781 204.132812 221.179688 C 204.269531 221.179688 204.269531 221.042969 204.40625 220.902344 C 205.371094 220.765625 206.195312 220.492188 207.019531 219.941406 C 207.15625 219.804688 207.292969 219.667969 207.292969 219.527344 C 231.761719 208.667969 256.230469 197.535156 280.5625 186.261719 C 281.386719 185.851562 282.210938 185.4375 283.035156 185.164062 C 299.808594 177.464844 316.578125 169.628906 333.210938 161.65625 C 329.5 169.078125 328.539062 179.941406 336.511719 184.0625 Z M 125.640625 227.089844 C 123.167969 215.128906 126.054688 202.894531 133.75 193.546875 C 143.375 197.535156 152.859375 201.519531 162.480469 205.371094 C 169.21875 208.121094 175.816406 210.867188 182.414062 213.480469 C 185.714844 214.855469 189.148438 216.09375 192.585938 217.191406 C 194.234375 217.742188 196.023438 218.292969 197.671875 218.839844 C 198.085938 218.980469 201.246094 220.355469 201.519531 220.214844 C 189.011719 226.402344 190.113281 242.074219 196.847656 252.65625 C 196.296875 251.832031 176.777344 245.921875 172.652344 244.546875 C 167.019531 242.484375 161.382812 240.421875 155.746094 238.363281 C 145.710938 234.789062 135.675781 231.074219 125.640625 227.5 C 125.640625 227.363281 125.777344 227.226562 125.640625 227.089844 Z M 123.578125 226.816406 C 119.042969 225.164062 114.644531 223.515625 110.109375 222.003906 C 110.246094 221.867188 110.382812 221.726562 110.382812 221.453125 C 110.65625 211.144531 112.582031 197.121094 120.144531 189.011719 C 120.691406 188.875 121.105469 188.601562 121.65625 188.460938 C 125.089844 189.835938 128.527344 191.347656 131.964844 192.722656 C 124.265625 202.484375 121.242188 214.71875 123.578125 226.816406 Z M 106.121094 201.246094 C 106.945312 198.359375 108.046875 195.058594 109.832031 192.035156 C 110.109375 192.035156 110.246094 192.035156 110.519531 191.898438 C 112.582031 191.625 114.507812 190.9375 116.429688 190.25 C 110.382812 198.773438 108.597656 211.417969 108.457031 221.179688 C 107.359375 220.765625 106.121094 220.355469 105.023438 219.941406 C 105.023438 219.941406 105.023438 219.804688 105.023438 219.667969 C 104.058594 213.617188 104.472656 207.433594 106.121094 201.246094 Z M 102.824219 219.390625 C 100.625 218.566406 98.421875 217.742188 96.085938 216.917969 C 94.988281 216.503906 93.75 216.367188 92.789062 215.679688 C 92.511719 215.40625 92.238281 215.128906 91.964844 214.71875 C 90.726562 212.378906 91.277344 209.21875 91 206.605469 C 90.726562 203.035156 90.726562 199.320312 91.6875 195.746094 C 92.238281 193.410156 93.199219 191.347656 94.4375 189.285156 C 94.851562 189.5625 95.398438 189.972656 95.8125 190.25 C 98.285156 191.625 101.449219 192.449219 105.023438 192.449219 C 105.710938 192.449219 106.535156 192.449219 107.222656 192.3125 C 106.121094 194.511719 105.296875 196.847656 104.472656 199.046875 C 102.546875 205.78125 102.136719 212.519531 102.824219 219.390625 Z M 89.902344 214.71875 C 86.328125 213.480469 82.753906 212.105469 79.179688 210.867188 C 79.453125 210.59375 79.730469 210.320312 79.589844 209.769531 C 76.703125 197.808594 80.691406 185.988281 89.761719 178.152344 C 89.761719 179.113281 89.761719 180.078125 89.902344 181.039062 C 90.3125 183.789062 91.277344 186.125 93.0625 187.914062 C 91.964844 189.699219 91 191.625 90.3125 193.6875 C 88.113281 200.558594 89.351562 207.84375 89.902344 214.71875 Z M 124.128906 187.5 C 128.253906 186.261719 132.515625 185.300781 137.050781 184.886719 C 142.824219 184.199219 149.011719 183.925781 155.472656 183.925781 C 166.46875 183.925781 178.425781 184.886719 192.171875 186.8125 C 196.574219 187.363281 201.109375 188.1875 205.644531 188.875 C 218.429688 190.9375 231.625 193 244.546875 193 C 253.480469 193 261.59375 191.898438 268.742188 189.835938 C 247.847656 199.460938 226.953125 208.945312 205.921875 218.292969 C 205.644531 218.429688 205.507812 218.566406 205.371094 218.703125 C 204.820312 218.980469 204.269531 219.117188 203.582031 219.253906 C 202.894531 219.253906 201.109375 218.152344 200.421875 217.878906 C 199.046875 217.328125 197.671875 216.917969 196.160156 216.367188 C 193.410156 215.40625 190.523438 214.304688 187.773438 213.34375 C 182.140625 211.28125 176.367188 209.082031 170.730469 206.882812 C 158.359375 202.070312 145.984375 196.984375 133.75 191.898438 C 133.613281 191.761719 133.339844 191.625 133.066406 191.625 C 130.179688 190.113281 127.152344 188.875 124.128906 187.5 Z M 327.851562 158.359375 C 330.1875 158.632812 331.972656 159.183594 333.210938 159.730469 C 317.265625 167.292969 301.320312 174.714844 285.375 182.140625 C 295.957031 174.992188 302.695312 164.957031 306.679688 153.820312 C 319.464844 156.570312 327.710938 158.359375 327.851562 158.359375 Z M 82.890625 120.003906 C 82.753906 117.394531 82.890625 114.78125 83.164062 112.308594 C 83.441406 109.832031 83.578125 107.222656 83.441406 104.746094 C 83.441406 104.609375 83.441406 104.472656 83.304688 104.472656 C 83.578125 104.058594 83.441406 103.648438 83.164062 103.234375 C 79.042969 99.109375 79.730469 91.277344 80.140625 85.503906 L 80.140625 84.816406 C 80.140625 84.539062 80.140625 83.988281 80.140625 83.578125 C 80.140625 82.476562 80.140625 80.828125 80.554688 80.277344 C 80.964844 79.589844 81.515625 79.316406 82.203125 79.316406 C 83.027344 79.316406 83.988281 79.730469 84.816406 80.140625 L 86.191406 80.691406 C 89.625 82.066406 93.335938 83.578125 95.8125 86.601562 C 96.085938 86.875 96.363281 87.015625 96.5 87.015625 C 96.910156 87.015625 97.324219 86.738281 97.460938 86.328125 C 97.597656 85.914062 97.597656 85.503906 97.324219 85.089844 C 96.910156 84.539062 96.363281 83.988281 95.8125 83.578125 C 97.738281 81.242188 99.9375 79.179688 102.136719 77.253906 C 102.824219 76.566406 103.511719 75.878906 104.335938 75.191406 C 105.296875 74.367188 106.121094 73.40625 106.945312 72.441406 C 107.910156 71.34375 109.007812 70.382812 109.96875 69.417969 C 110.796875 68.59375 111.894531 67.90625 112.855469 67.21875 C 113.957031 66.53125 115.058594 65.707031 116.019531 64.746094 C 118.082031 62.820312 120.417969 61.308594 122.203125 60.207031 C 126.328125 57.734375 131.003906 55.535156 137.050781 53.335938 C 148.183594 49.210938 156.84375 46.324219 164.957031 43.988281 C 180.625 39.589844 196.710938 37.253906 212.792969 37.253906 C 217.46875 37.253906 222.003906 37.390625 226.539062 37.800781 C 236.988281 38.628906 246.882812 41.375 255.957031 43.988281 C 263.792969 46.324219 273.003906 49.488281 281.386719 54.574219 C 296.644531 63.921875 305.992188 78.765625 308.742188 97.597656 C 310.117188 107.359375 312.179688 130.453125 305.167969 151.070312 C 304.894531 151.757812 304.617188 152.585938 304.34375 153.273438 C 299.121094 167.15625 289.636719 179.800781 272.726562 185.988281 C 264.34375 189.148438 254.996094 190.660156 244.136719 190.660156 C 231.351562 190.660156 218.15625 188.601562 205.507812 186.539062 C 199.871094 185.574219 194.648438 184.75 189.285156 184.0625 C 176.367188 182.414062 165.09375 181.589844 155.058594 181.589844 C 146.261719 181.589844 138.425781 182.140625 130.863281 183.375 L 129.628906 183.652344 C 126.878906 184.199219 123.992188 185.027344 120.832031 186.125 C 120.691406 186.125 120.554688 186.261719 120.417969 186.261719 C 119.730469 186.539062 119.179688 186.8125 118.492188 187.085938 C 118.21875 187.226562 118.082031 187.226562 117.945312 187.363281 C 116.429688 188.050781 114.917969 188.738281 113.269531 189.148438 C 112.582031 189.285156 112.03125 189.425781 111.34375 189.5625 C 110.382812 189.699219 109.558594 189.835938 108.734375 189.972656 C 107.632812 190.113281 106.535156 190.25 105.433594 190.25 C 103.511719 190.25 101.585938 189.972656 99.9375 189.5625 C 98.285156 189.148438 96.910156 188.324219 95.8125 187.5 C 95.261719 187.085938 94.851562 186.675781 94.4375 186.125 C 93.613281 185.164062 93.0625 184.0625 92.789062 182.6875 C 92.238281 180.902344 92.101562 178.839844 92.375 176.640625 C 92.375 175.953125 92.511719 175.402344 92.648438 174.714844 C 93.199219 171.828125 94.164062 169.078125 95.535156 166.46875 C 96.222656 165.230469 105.570312 153.546875 107.359375 151.757812 C 111.070312 148.183594 115.058594 144.886719 119.457031 142.273438 C 125.777344 138.289062 132.789062 135.265625 140.074219 133.203125 C 150.246094 130.589844 161.519531 129.214844 173.890625 129.214844 C 183.375 129.214844 193.410156 130.039062 203.996094 131.550781 C 210.320312 132.515625 216.78125 133.75 222.964844 134.988281 C 227.089844 135.8125 231.214844 136.5 235.335938 137.324219 C 241.933594 138.425781 248.535156 139.386719 255.269531 139.9375 C 258.15625 140.210938 261.042969 140.210938 263.929688 140.210938 L 265.578125 140.210938 C 274.238281 140.074219 282.210938 136.914062 287.296875 131.550781 C 291.558594 127.015625 293.757812 120.96875 293.484375 114.371094 C 293.484375 113.683594 292.933594 113.269531 292.382812 113.269531 C 292.109375 113.269531 291.835938 113.40625 291.558594 113.542969 C 291.421875 113.683594 291.285156 113.957031 291.285156 114.230469 C 291.558594 123.167969 287.4375 130.726562 279.875 134.578125 C 275.476562 136.777344 270.390625 137.875 263.792969 137.875 C 260.355469 137.875 257.054688 137.601562 253.480469 137.324219 C 247.847656 136.777344 242.074219 136.089844 236.4375 135.125 C 231.625 134.300781 226.953125 133.476562 222.277344 132.652344 C 218.015625 131.828125 213.617188 131.003906 209.21875 130.316406 C 202.757812 129.214844 196.296875 128.253906 189.699219 127.839844 C 183.652344 127.429688 178.152344 127.152344 172.929688 127.152344 C 169.90625 127.152344 166.878906 127.289062 163.992188 127.429688 C 158.082031 127.703125 152.445312 128.390625 147.222656 129.351562 C 143.785156 130.039062 140.488281 130.863281 137.324219 131.828125 C 135.265625 132.515625 133.203125 133.066406 131.277344 133.890625 C 128.804688 134.851562 126.464844 135.953125 124.128906 137.050781 C 121.515625 138.425781 118.90625 139.800781 116.570312 141.449219 C 111.894531 144.613281 107.632812 148.183594 103.785156 152.171875 C 102.824219 153.273438 101.859375 154.234375 100.898438 155.332031 C 100.761719 155.332031 100.761719 155.195312 100.625 155.195312 C 98.699219 154.097656 97.050781 152.859375 95.535156 151.210938 C 87.152344 141.585938 83.441406 125.777344 82.890625 120.003906 Z M 81.378906 147.910156 C 83.988281 147.222656 86.601562 146.398438 89.214844 145.4375 C 89.625 146.535156 90.449219 147.5 91 148.597656 C 91.6875 149.835938 92.648438 151.070312 93.613281 152.035156 C 94.023438 152.445312 99.109375 157.394531 99.523438 156.84375 C 99.109375 157.394531 98.699219 157.945312 98.285156 158.632812 C 94.851562 162.207031 91.550781 168.117188 90.3125 173.890625 C 89.625 173.617188 88.9375 173.339844 88.25 173.203125 C 86.191406 172.515625 84.128906 171.828125 81.929688 171.003906 C 77.667969 169.628906 73.542969 168.253906 69.28125 166.878906 C 68.042969 166.46875 66.808594 166.054688 65.570312 165.644531 C 64.746094 165.367188 63.78125 165.09375 62.957031 164.820312 C 57.871094 163.167969 52.785156 161.382812 47.5625 160.007812 C 45.5 159.457031 43.300781 159.046875 41.101562 158.769531 C 41.925781 158.769531 43.164062 158.21875 43.851562 157.945312 C 44.8125 157.671875 45.773438 157.394531 46.601562 157.121094 C 48.523438 156.570312 50.3125 156.019531 52.234375 155.609375 C 58.421875 153.820312 64.746094 152.171875 70.929688 150.523438 C 74.644531 149.699219 78.078125 148.871094 81.378906 147.910156 Z M 29.28125 167.292969 C 34.777344 157.394531 46.050781 161.519531 54.574219 164.269531 C 56.496094 164.957031 58.421875 165.503906 60.484375 166.054688 C 61.308594 166.332031 62.269531 166.605469 63.234375 166.878906 C 72.167969 169.628906 81.101562 172.515625 89.902344 175.679688 C 79.179688 183.925781 74.644531 196.984375 77.804688 210.320312 C 72.992188 208.53125 68.042969 206.882812 63.234375 205.09375 C 62.546875 204.820312 61.859375 204.546875 61.171875 204.40625 C 50.863281 200.695312 40.414062 196.984375 29.96875 193.136719 C 28.316406 190.113281 27.082031 186.8125 26.53125 183.375 C 26.394531 182.6875 26.394531 182.140625 26.253906 181.453125 C 25.980469 176.503906 26.804688 171.691406 29.28125 167.292969 Z M 12.648438 222.414062 C 17.457031 218.703125 21.03125 214.03125 21.167969 207.570312 C 21.308594 201.933594 18.832031 196.847656 15.394531 192.585938 C 28.179688 197.535156 40.550781 203.445312 52.785156 209.769531 C 53.335938 210.042969 54.023438 210.320312 54.574219 210.730469 C 71.894531 219.804688 88.9375 229.425781 106.671875 237.8125 C 138.699219 253.070312 171.828125 265.578125 204.957031 278.226562 C 205.09375 278.363281 205.371094 278.5 205.644531 278.5 C 206.058594 278.636719 206.605469 278.914062 207.019531 279.050781 C 207.15625 279.050781 207.292969 279.050781 207.433594 279.050781 C 211.96875 282.625 212.792969 288.261719 212.242188 293.757812 C 212.242188 293.898438 212.105469 293.898438 212.105469 294.035156 C 211.144531 298.15625 209.355469 301.730469 206.605469 305.03125 C 206.46875 305.167969 206.332031 305.445312 206.332031 305.71875 C 185.851562 296.921875 165.367188 288.125 144.886719 279.324219 C 141.175781 277.675781 137.464844 276.164062 133.75 274.515625 C 98.285156 259.253906 62.820312 243.996094 27.355469 228.738281 C 26.667969 228.464844 26.117188 228.1875 25.429688 227.914062 C 21.167969 226.128906 16.90625 224.203125 12.648438 222.414062 Z M 25.429688 229.976562 C 30.378906 232.039062 35.191406 234.238281 40.140625 236.300781 C 44.949219 238.363281 49.898438 240.5625 54.847656 242.621094 C 59.660156 244.683594 64.609375 246.882812 69.417969 248.945312 C 74.230469 251.007812 79.179688 253.207031 84.128906 255.269531 C 88.9375 257.332031 93.886719 259.53125 98.835938 261.59375 C 103.648438 263.65625 108.597656 265.855469 113.40625 267.917969 C 115.882812 269.015625 118.21875 269.976562 120.554688 271.078125 C 101.035156 265.714844 81.515625 260.082031 61.996094 254.167969 C 45.636719 249.359375 29.417969 244.273438 13.195312 239.046875 C 13.058594 239.046875 12.921875 238.910156 12.785156 238.910156 C 12.648438 238.910156 12.507812 238.773438 12.234375 238.773438 C 16.632812 235.75 21.03125 232.863281 25.429688 229.976562 Z M 62.683594 291.421875 C 45.914062 287.160156 30.105469 282.351562 13.472656 277.949219 C 13.472656 277.949219 13.472656 277.8125 13.332031 277.8125 C 6.460938 274.652344 1.785156 267.777344 1.785156 260.21875 C 1.785156 252.246094 5.359375 245.234375 11.132812 240.148438 C 50.585938 252.519531 91.964844 264.890625 131.828125 275.890625 C 135.402344 277.402344 138.976562 278.914062 142.550781 280.5625 C 147.359375 282.625 152.308594 284.824219 157.121094 286.886719 C 162.070312 288.949219 166.878906 291.148438 171.828125 293.210938 C 176.640625 295.269531 181.589844 297.46875 186.539062 299.53125 C 191.347656 301.59375 196.296875 303.792969 201.109375 305.855469 C 202.207031 306.269531 203.171875 306.816406 204.269531 307.230469 C 205.234375 307.644531 206.195312 308.191406 207.292969 308.46875 C 208.53125 308.742188 209.355469 307.917969 210.320312 307.367188 C 211.417969 306.679688 212.382812 306.128906 213.480469 305.445312 C 215.542969 304.207031 217.742188 302.832031 219.941406 301.59375 C 221.179688 300.90625 222.277344 300.21875 223.515625 299.53125 C 229.976562 301.042969 236.574219 302.695312 243.035156 304.207031 C 243.171875 304.207031 243.308594 304.207031 243.308594 304.207031 C 243.449219 304.617188 243.859375 305.03125 244.410156 304.894531 C 241.933594 310.253906 240.285156 316.027344 240.011719 321.9375 C 239.875 324.964844 240.011719 327.988281 240.699219 331.011719 C 240.835938 331.425781 241.933594 334.585938 242.898438 336.785156 C 182.550781 322.214844 122.753906 306.816406 62.683594 291.421875 Z M 245.097656 337.886719 C 244.960938 337.199219 244.546875 336.648438 244.136719 335.683594 C 242.484375 332.25 241.796875 328.539062 241.660156 324.6875 C 241.386719 317.539062 243.308594 310.390625 246.609375 304.070312 C 246.746094 303.65625 246.746094 303.382812 246.472656 303.105469 C 276.027344 279.875 305.445312 256.507812 335 233.273438 C 336.097656 232.3125 337.335938 231.488281 338.433594 230.527344 C 342.285156 227.777344 345.996094 225.164062 349.707031 222.414062 C 354.242188 219.117188 360.015625 216.09375 363.867188 211.832031 C 363.726562 212.378906 363.726562 212.792969 363.726562 213.34375 C 363.726562 215.40625 364.277344 217.328125 365.378906 219.117188 C 366.476562 220.902344 368.8125 224.339844 371.289062 225.441406 C 331.285156 265.167969 289.085938 302.695312 245.097656 337.886719 Z M 245.097656 337.886719 "/></g><path style=" stroke:none;fill-rule:nonzero;fill:#365b6d;fill-opacity:1;" d="M 144.613281 90.589844 C 145.023438 90.589844 145.296875 90.449219 145.574219 90.039062 C 149.835938 83.851562 157.808594 81.101562 164.269531 79.589844 C 165.644531 84.539062 166.605469 91.414062 163.992188 95.8125 C 163.71875 96.085938 163.71875 96.5 163.992188 96.910156 C 164.269531 97.324219 164.542969 97.460938 164.957031 97.460938 C 165.367188 97.460938 165.644531 97.324219 165.917969 96.910156 C 169.078125 91.550781 167.84375 83.578125 166.191406 77.941406 C 166.054688 77.53125 165.644531 77.117188 164.957031 77.117188 L 164.820312 77.117188 C 157.53125 78.765625 148.597656 81.652344 143.785156 88.800781 C 143.511719 89.078125 143.511719 89.488281 143.648438 89.761719 C 143.785156 90.449219 144.199219 90.589844 144.613281 90.589844 Z M 144.613281 90.589844 "/><path style=" stroke:none;fill-rule:nonzero;fill:#365b6d;fill-opacity:1;" d="M 118.082031 126.878906 C 118.90625 127.839844 119.59375 128.664062 120.832031 129.078125 C 120.691406 130.039062 120.832031 131.003906 120.832031 131.964844 C 120.832031 132.378906 120.832031 132.789062 120.832031 133.339844 C 120.832031 134.027344 121.378906 134.4375 121.929688 134.4375 C 122.203125 134.4375 122.480469 134.300781 122.753906 134.164062 C 122.890625 134.027344 123.03125 133.75 123.03125 133.476562 C 123.03125 133.066406 123.03125 132.515625 123.03125 132.101562 C 122.890625 131.140625 122.890625 130.179688 123.03125 129.351562 L 123.03125 129.214844 C 123.992188 128.804688 124.816406 127.976562 125.640625 127.152344 C 126.054688 126.742188 126.328125 126.464844 126.742188 126.054688 C 127.015625 125.777344 127.152344 125.367188 127.015625 124.953125 C 126.878906 124.542969 126.328125 124.128906 125.917969 124.128906 C 125.640625 124.128906 125.367188 124.265625 125.230469 124.40625 C 124.953125 124.679688 124.679688 124.953125 124.265625 125.367188 C 123.578125 126.191406 122.753906 127.015625 121.792969 127.152344 C 120.96875 127.152344 120.28125 126.191406 119.59375 125.367188 C 119.316406 124.953125 119.042969 124.679688 118.769531 124.40625 C 118.492188 124.265625 118.355469 124.128906 118.082031 124.128906 C 117.667969 124.128906 117.117188 124.40625 116.980469 124.816406 C 116.84375 125.230469 116.980469 125.640625 117.257812 125.917969 C 117.394531 126.054688 117.667969 126.328125 118.082031 126.878906 Z M 118.082031 126.878906 "/><path style=" stroke:none;fill-rule:nonzero;fill:#365b6d;fill-opacity:1;" d="M 142.273438 122.066406 C 145.023438 122.066406 147.636719 120.832031 149.148438 118.769531 C 149.421875 118.355469 149.421875 117.945312 149.285156 117.53125 C 149.011719 117.117188 148.734375 116.84375 148.324219 116.84375 C 148.046875 116.84375 147.773438 116.980469 147.636719 117.257812 C 146.398438 118.769531 144.335938 119.867188 142.136719 119.867188 C 140.210938 119.867188 138.699219 119.179688 137.738281 117.804688 C 137.464844 117.53125 137.1875 117.394531 136.777344 117.394531 C 136.363281 117.394531 135.953125 117.667969 135.675781 118.082031 C 135.539062 118.355469 135.539062 118.769531 135.8125 119.042969 C 137.324219 120.96875 139.664062 122.066406 142.273438 122.066406 Z M 142.273438 122.066406 "/><path style=" stroke:none;fill-rule:nonzero;fill:#365b6d;fill-opacity:1;" d="M 98.835938 133.339844 C 89.351562 128.527344 78.765625 126.464844 68.320312 127.292969 C 66.945312 127.429688 67.355469 129.351562 68.730469 129.351562 C 78.902344 128.527344 89.214844 130.726562 98.285156 135.265625 C 99.25 135.8125 99.9375 133.890625 98.835938 133.339844 Z M 98.835938 133.339844 "/><path style=" stroke:none;fill-rule:nonzero;fill:#365b6d;fill-opacity:1;" d="M 98.421875 138.839844 C 88.113281 136.5 77.253906 137.1875 67.355469 140.488281 C 66.121094 140.898438 66.945312 142.824219 68.183594 142.410156 C 77.804688 139.113281 88.25 138.699219 98.285156 140.898438 C 99.386719 141.175781 99.660156 139.113281 98.421875 138.839844 Z M 98.421875 138.839844 "/><path style=" stroke:none;fill-rule:nonzero;fill:#365b6d;fill-opacity:1;" d="M 98.972656 143.925781 C 89.488281 146.671875 81.515625 149.421875 74.09375 156.84375 C 73.128906 157.808594 74.644531 159.046875 75.742188 158.082031 C 83.714844 151.070312 91.136719 147.910156 99.796875 145.847656 C 101.035156 145.574219 100.210938 143.511719 98.972656 143.925781 Z M 98.972656 143.925781 "/></g></svg>